<svg width="16" height="16" xmlns="http://www.w3.org/2000/svg"><g fill="#3D4757"><path d="M8.923 11v1h-2A2 2 0 015 10.55c.328-.15.638-.335.923-.55a1 1 0 001 1h2zm0-6h-2a1 1 0 00-1 1A4.997 4.997 0 005 5.45 2 2 0 016.923 4h2v1z"/><path d="M4 10a2 2 0 100-4 2 2 0 000 4zm0 1a3 3 0 110-6 3 3 0 010 6zm6-9a1 1 0 00-1 1v3a1 1 0 001 1h3a1 1 0 001-1V3a1 1 0 00-1-1h-3zm0-1h3a2 2 0 012 2v3a2 2 0 01-2 2h-3a2 2 0 01-2-2V3a2 2 0 012-2zm0 10a1 1 0 00-1 1v1a1 1 0 001 1h3a1 1 0 001-1v-1a1 1 0 00-1-1h-3zm0-1h3a2 2 0 012 2v1a2 2 0 01-2 2h-3a2 2 0 01-2-2v-1a2 2 0 012-2z"/></g></svg>